<svg width="955" height="527" viewBox="0 0 955 527" fill="none" xmlns="http://www.w3.org/2000/svg">
<path d="M656.215 159.941C705.455 158.95 759.71 158.079 792.735 202.188C833.535 256.684 830.625 356.682 774.205 399.976C743.45 422.549 710.99 422.474 674.87 422.499L622.87 422.509L593.71 422.549C590.655 422.549 577.276 423.124 575.92 421.44C575.975 420.846 575.855 420.192 576.37 420.047C583.23 418.089 589.215 417.374 593.96 411.035C597.035 406.929 598.82 399.855 599.07 394.4C599.69 380.849 599.28 367.052 599.295 353.415L599.33 271.583L599.354 215.439C599.359 211.134 599.415 206.926 599.365 202.511C599.21 187.959 601.435 169.357 583.57 164.296C581.49 163.707 577.875 163.147 576.225 161.987L576.015 160.002C602.66 159.684 629.605 160.477 656.215 159.941ZM714.925 175.53C699.065 164.533 682.12 164.371 663.68 165.011C662.445 165.951 661.56 166.222 661.55 167.843C661.49 175.987 661.51 184.679 661.51 192.757L661.525 252.229L661.516 348.544C661.521 364.928 661.24 381.452 661.76 397.802C662.21 412.093 666.646 417.428 681.266 417.354C701.74 417.244 716.42 410.585 728.9 394.315C756.05 356.431 758.255 292.32 750.93 247.654C746.7 221.856 737.295 191.039 714.925 175.53Z" fill="#222222"/>
<path d="M115.791 159.977C155.57 159.522 195.439 160.301 235.253 159.865C258.297 159.613 282.62 162.265 301.86 176.117C329.622 196.103 332.816 238.755 312.789 265.239C298.103 284.661 275.283 292.044 252.008 295.229C261.332 298.122 265.592 298.482 274.969 303.622C303.932 319.502 313.805 355.313 326.596 383.506C331.074 393.371 334.101 401.679 342.075 409.521C347.767 415.116 351.228 413.418 355.005 416.08L354.498 416.949C347.283 421.75 322.961 424.482 314.095 424.277C295.946 423.853 284.892 421.36 272.071 408.487C263.037 397.643 256.946 381.169 251.436 367.901L237.566 334.253C233.639 324.737 228.71 311.694 221.421 304.446C214.929 297.997 206.932 298.447 198.604 298.712L198.51 361.787C198.505 374.095 198.058 387.493 199.307 399.746C200.295 406.934 204.013 413.537 210.633 416.864C213.513 418.313 222.968 418.263 222.788 421.984C219.048 423.038 122.71 423.009 116.248 422.185L115.819 421.125C117.746 417.843 128.793 419.292 133.656 411.189C141.952 397.373 139.095 374.195 139.096 358.41L139.102 284.906L139.126 218.831C139.13 212.291 139.141 205.732 139.13 199.166C139.106 185.521 140.054 169.052 123.713 164.396C121.716 163.828 117.628 163.126 116.077 162.014L115.791 159.977ZM246.086 174.649C232.914 163.99 216.482 164.41 200.429 165.06C199.715 165.499 198.635 165.934 198.638 166.967C198.73 208.813 198.105 250.953 198.56 292.797C216.762 293.672 232.986 293.867 247.049 280.998C247.572 280.526 248.08 280.035 248.57 279.527C264.26 260.405 265.664 237.555 263.766 213.591C262.631 199.27 257.573 183.947 246.086 174.649Z" fill="#222222"/>
<path d="M359.979 159.996C380.223 159.602 401.547 159.936 421.868 159.936L551.405 159.906C553.18 179.874 556.955 212.456 558.37 233.957C558.195 234.261 558.02 234.565 557.84 234.87L556.42 235.136C554.925 234.06 553.83 228.809 553.035 226.802C542.84 201.155 524.73 177.103 497.365 168.775C492.78 167.411 488.09 166.43 483.345 165.842C477.47 165.096 451.96 163.662 447.725 165.936C446.7 167.37 446.625 167.659 446.62 169.749C446.565 182.61 446.605 195.637 446.605 208.488L446.69 283.309L455.7 283.41C484.3 283.648 502.87 282.637 513.64 250.661C514.35 248.545 516.13 240.169 517.16 239.155L518 239.677C519.29 242.624 519.04 246.552 518.995 249.745C518.55 278.058 519.445 306.435 518.68 334.728C518.36 335.073 518.035 335.412 517.71 335.757C515.57 335.118 515.255 330.927 514.87 328.963C508.92 298.697 488.565 287.225 458.965 289.165C455.5 289.392 451.21 288.852 447.475 289.418C446.38 290.605 446.75 290.495 446.635 292.598L446.595 366.892C446.585 379.53 446.03 392.243 447.385 404.816C448.995 418.773 459.195 416.6 469.315 417.175C509.44 419.443 534.79 397.648 552.725 362.347C554.975 357.861 557.085 353.305 559.045 348.685C560.03 346.387 560.415 344.364 561.74 342.376H563.03C563.205 342.64 563.385 342.905 563.56 343.175C561.64 365.034 557.205 402.569 554.335 422.435C543.335 422.804 530.565 422.505 519.46 422.51L450.9 422.505L392.881 422.525C388.6 422.525 361.608 423.104 359.968 421.585C361.666 417.974 373.943 418.344 378.397 410.976C381.306 406.165 383.169 401.604 383.41 395.565C383.943 382.223 383.708 368.251 383.708 354.899L383.712 276.909L383.745 216.669C383.75 213.085 383.836 209.567 383.757 205.865C383.442 190.973 386.565 169.68 367.989 164.301C365.742 163.65 361.993 163.244 360.229 161.999L359.979 159.996Z" fill="#222222"/>
<path d="M735.535 17.293C735.805 17.6117 736.075 17.9299 736.345 18.2486C738.255 30.2332 742.185 53.6705 748.15 63.2549C753.245 71.4421 781.95 76.7241 791.495 78.8171C741.43 91.8647 747.155 85.4768 736.235 137.561C735.535 137.031 735.19 136.486 735.05 135.581C733.28 124.153 729.05 105.386 723.69 95.4623C718.575 85.9838 690.845 81.1104 680.21 78.7916C695.85 75.7215 708.775 73.2344 722.51 64.7864C730.395 49.3376 732.07 33.6679 735.535 17.293Z" fill="#E30004"/>
<path d="M892.545 270.571C894.09 272.447 897.13 295.909 901.485 303.067C907.175 312.419 926.14 314.636 936.005 316.829C927.195 318.728 918.445 320.336 909.78 323.598C898.5 327.679 897.31 342.045 894.985 352.121C894.2 355.518 894.25 359.284 892.77 362.601C889.9 355.852 889.515 338.259 883.945 330.197C877.92 321.47 859.55 319.102 849.355 316.924C858.625 314.022 870.28 312.973 879.145 307.783C888.07 302.558 889.935 280.881 892.545 270.571Z" fill="#F78F41"/>
<path d="M57.4836 360.947C58.8571 362.771 60.4206 375.479 61.5411 379.22C63.6936 386.413 64.0866 389.6 67.8811 396.344C77.5626 402.353 89.2356 404.506 100.268 406.849C92.0706 408.462 80.4861 410.605 73.0776 413.967C60.8751 419.512 61.5371 441.386 57.7306 452.086C56.1751 449.054 56.0546 445.077 55.3971 441.895C53.9591 434.942 51.5026 420.661 45.7431 416.245C38.7466 410.875 23.5626 408.582 15.1406 406.869C55.4636 396.873 48.8351 399.561 57.4836 360.947Z" fill="#3382CD"/>
<path d="M608.68 477.427C622.13 477.492 626.869 491.698 619.074 501.844C613.039 506.919 606.404 506.035 598.904 505.975C598.679 496.644 598.82 486.803 598.805 477.432C602.115 477.392 605.38 477.407 608.68 477.427ZM614.545 483.69C610.815 480.908 607.71 481.308 603.33 481.493C603.265 488.327 603.264 495.16 603.319 501.993C608.019 502.053 611.395 502.508 615.215 499.436C619.04 494.49 620.19 487.901 614.545 483.69Z" fill="#222222"/>
<path d="M501.105 477.452C506.78 477.342 517.92 476.173 520.8 481.498C524.135 487.672 520.77 491.813 515.805 494.681C517.62 497.798 521.77 502.588 521.745 505.351C520.37 506.364 520 505.974 517.84 505.989C515.505 502.522 511.275 491.913 505.775 495.33C504.885 498.562 506.545 504.127 504.705 505.965C503 505.985 502.82 506.15 501.425 505.166C500.9 504.027 501.12 480.69 501.105 477.452ZM516.31 489.771C520.625 480.524 511.565 481.268 505.5 481.493L505.48 491.029C509.185 491.029 513.025 491.404 516.31 489.771Z" fill="#222222"/>
<path d="M153.053 477.442C156.297 477.377 163.417 476.877 166.253 477.592C176.696 480.219 176.112 489.945 167.636 494.766C169.403 497.483 173.768 502.634 173.86 505.241C172.68 506.365 172.185 505.941 169.979 505.976C167.569 502.629 163.243 492.168 157.737 495.29C156.875 498.492 158.404 504.252 156.71 505.9C154.821 505.965 154.98 506.25 153.57 505.476C152.755 503.458 153.068 481.304 153.053 477.442ZM157.471 481.389L157.458 491.024C161.862 491.074 164.561 491.654 168.258 489.541C172.765 480.785 163.052 481.294 157.471 481.389Z" fill="#222222"/>
<path d="M717.955 477.407C719.005 477.402 721.89 477.273 722.235 477.797C724.66 481.483 732.739 501.908 733.55 505.171C732.705 506.45 733.24 505.9 731.59 506.52C727.09 505.275 729.315 499.381 724.125 499.057L714.005 499.167C713.15 501.655 712.675 503.613 711.12 505.726C709.385 506.02 709.22 505.865 707.54 505.476C707.032 503.759 716.625 480.924 717.955 477.407ZM715.51 495.215L722.125 495.175L724.024 495.08C724.844 493.227 721.495 484.665 720.165 483.376L715.51 495.215Z" fill="#222222"/>
<path d="M289.495 477.422C290.493 477.387 291.569 477.307 292.561 477.422C295.189 477.732 306.259 495.39 308.444 498.602C308.453 495.775 308.221 479.5 308.739 477.887C310.049 477.387 310.697 477.657 312.078 477.922C313.417 480.439 312.644 501.764 312.587 506.02C311.08 506.04 310.764 506.055 309.29 505.815C305.813 503.427 296.864 489.181 293.809 484.77C293.833 487.737 294.244 504.107 293.495 505.65C291.91 506.03 291.79 505.895 290.222 505.6C288.87 503.612 289.492 481.708 289.495 477.422Z" fill="#222222"/>
<path d="M464.92 477.472C469.925 477.492 478.695 476.932 483.24 477.816C483.735 479.41 483.71 478.606 483.145 480.314C480.675 482.387 472.975 481.473 469.385 481.408L469.3 489.505C473.21 489.44 479.005 488.856 482.085 491.144L482.115 491.943C479.035 494.261 473.255 493.641 469.335 493.547L469.315 502.018C473.63 502.123 482.735 500.09 483.805 504.771L483.225 505.63C478.765 506.394 469.835 506.03 464.92 505.995V477.472Z" fill="#222222"/>
<path d="M640.045 477.462C644.265 477.457 654.815 476.918 658.28 477.872C658.89 479.116 658.665 479.35 658.455 480.784C656.315 481.638 647.38 481.438 644.455 481.438L644.48 489.546C648.045 489.481 655.23 488.766 657.79 491.574L657.595 491.913C654.41 494.186 648.51 493.647 644.52 493.587L644.475 502.029C648.7 502.094 653.985 501.304 657.785 502.523C659.13 503.822 658.745 503.038 658.86 505.021L658.215 505.68C653.95 506.355 644.865 506.005 640.07 505.985L640.045 477.462Z" fill="#222222"/>
<path d="M390.923 477.412C396.232 477.567 404.445 476.822 409.224 477.866C409.74 479.42 409.695 478.626 409.16 480.334C406.811 482.317 398.936 481.448 395.235 481.443L395.25 489.525C399.19 489.45 405.046 488.856 408.144 491.154L408.132 491.923C405.261 494.201 399.007 493.651 395.255 493.591C395.15 496.039 395.266 499.461 395.28 501.983C399.647 502.103 406.788 500.885 409.594 503.482C409.718 505.076 409.954 504.396 409.221 505.645C404.912 506.354 395.718 506.02 390.93 505.985L390.923 477.412Z" fill="#222222"/>
<path d="M331.769 477.452C336.629 477.482 345.66 476.917 349.981 477.837C350.498 479.32 350.473 478.581 350.006 480.124C347.487 482.267 340.099 481.408 336.248 481.413L336.112 489.58C339.563 489.505 346.76 488.766 349.22 491.529L349.012 491.893C345.856 494.166 340.099 493.637 336.182 493.567L336.168 501.989C340.484 502.104 345.509 501.234 349.262 502.513C350.578 503.857 350.192 503.063 350.356 505.026L349.713 505.68C345.499 506.344 336.61 506 331.782 506.01L331.769 477.452Z" fill="#222222"/>
<path d="M192.485 477.447C196.766 477.522 207.293 476.688 210.627 478.006C210.977 479.37 210.974 478.87 210.596 480.224C208.231 482.287 200.272 481.418 196.796 481.358L196.803 489.525C200.742 489.455 206.51 488.881 209.633 491.154L209.633 491.928C206.757 494.181 200.62 493.641 196.886 493.576L196.75 502.023C200.688 502.083 208.255 500.825 211.022 503.457C211.096 505.146 211.383 504.456 210.488 505.675C206.163 506.364 197.282 506.01 192.496 505.96L192.485 477.447Z" fill="#222222"/>
<path d="M436.94 500.145C438.09 496.513 443.575 479.455 445.59 477.766C447.21 477.352 447.355 477.162 448.97 477.656L449.38 478.521L447.725 482.916C446.04 487.272 441.1 502.073 438.98 505.325C437.02 505.93 437.06 505.845 434.967 505.62C433.472 504.041 425.183 480.928 423.98 477.502C427.484 477.352 428.397 476.747 429.72 480.124C432.301 486.713 434.583 493.476 436.94 500.145Z" fill="#222222"/>
<path d="M229.386 477.437C233.921 477.457 243.967 476.878 247.698 477.952C248.105 479.4 248.089 478.681 247.658 480.19C245.316 482.288 237.294 481.453 233.606 481.463L233.598 489.98C236.623 489.93 245.063 489.341 247.282 490.829L246.698 493.067C244.76 494.821 236.53 494.116 233.6 494.121C233.62 497.353 233.778 501.774 233.443 504.991C233.38 505.6 232.881 505.625 232.106 506.02C230.074 505.83 230.793 506.27 229.612 505.141C228.893 500.41 229.347 483.357 229.386 477.437Z" fill="#222222"/>
<path d="M535.42 477.447C536.64 477.437 537.825 477.467 539.04 477.492C542.47 479.241 545.53 485.949 547.73 489.641C550.29 485.719 552.125 481.558 555.135 477.917C556.475 477.302 557.555 477.542 559.05 477.637C559.42 479.465 554.66 486.389 553.37 488.452L549.97 494.042C550.005 497.528 550.685 504.267 547.84 506.645L547.25 506.385C544.835 503.113 545.415 498.043 545.49 493.967C542.045 488.517 538.69 483.007 535.42 477.447Z" fill="#222222"/>
<path d="M673.65 477.452C677.335 477.472 693.195 476.703 695.275 478.172C695.44 480.06 695.725 479.52 695.085 480.934C692.82 481.738 689.465 481.443 686.94 481.409L686.975 498.153C687.05 500.68 687.295 502.923 686.64 505.341C685.35 506.22 685.43 505.875 683.435 505.7C681.745 503.722 682.52 485.125 682.53 481.399C679.905 481.399 677.16 482.008 674.875 481.149C673.465 479.62 673.915 480.015 673.65 477.452Z" fill="#222222"/>
<path d="M774.005 477.457C775.865 477.457 776.82 477.222 778.075 478.177C778.64 482.018 778.315 497.433 778.32 501.979C782.625 502.079 786.295 501.345 790.36 502.369C791.705 503.582 791.27 503.208 791.48 505.625C789.155 506.315 777.085 505.995 773.99 505.97L774.005 477.457Z" fill="#222222"/>
<path d="M750.135 477.412C751.96 477.447 753.065 477.213 754.305 478.162C755.005 484.176 754.515 499.342 754.48 506.02C752.75 506.045 752.565 506.065 750.785 505.731C749.355 503.787 750.095 481.429 750.135 477.412Z" fill="#222222"/>
<path d="M265.89 477.452C267.504 477.397 268.381 477.217 269.84 477.911C270.467 481.613 270.074 500.869 270.045 505.975C268.675 505.995 267.053 506.194 266.116 505.26C265.437 498.492 265.872 484.725 265.89 477.452Z" fill="#222222"/>
</svg>
