<svg xmlns="http://www.w3.org/2000/svg" viewBox="100 150 710 290">
<path d="M656.215 159.941C705.455 158.95 759.71 158.079 792.735 202.188C833.535 256.684 830.625 356.682 774.205 399.976C743.45 422.549 710.99 422.474 674.87 422.499L622.87 422.509L593.71 422.549C590.655 422.549 577.276 423.124 575.92 421.44C575.975 420.846 575.855 420.192 576.37 420.047C583.23 418.089 589.215 417.374 593.96 411.035C597.035 406.929 598.82 399.855 599.07 394.4C599.69 380.849 599.28 367.052 599.295 353.415L599.33 271.583L599.354 215.439C599.359 211.134 599.415 206.926 599.365 202.511C599.21 187.959 601.435 169.357 583.57 164.296C581.49 163.707 577.875 163.147 576.225 161.987L576.015 160.002C602.66 159.684 629.605 160.477 656.215 159.941ZM714.925 175.53C699.065 164.533 682.12 164.371 663.68 165.011C662.445 165.951 661.56 166.222 661.55 167.843C661.49 175.987 661.51 184.679 661.51 192.757L661.525 252.229L661.516 348.544C661.521 364.928 661.24 381.452 661.76 397.802C662.21 412.093 666.646 417.428 681.266 417.354C701.74 417.244 716.42 410.585 728.9 394.315C756.05 356.431 758.255 292.32 750.93 247.654C746.7 221.856 737.295 191.039 714.925 175.53Z" fill="#222222"/>
<path d="M115.791 159.977C155.57 159.522 195.439 160.301 235.253 159.865C258.297 159.613 282.62 162.265 301.86 176.117C329.622 196.103 332.816 238.755 312.789 265.239C298.103 284.661 275.283 292.044 252.008 295.229C261.332 298.122 265.592 298.482 274.969 303.622C303.932 319.502 313.805 355.313 326.596 383.506C331.074 393.371 334.101 401.679 342.075 409.521C347.767 415.116 351.228 413.418 355.005 416.08L354.498 416.949C347.283 421.75 322.961 424.482 314.095 424.277C295.946 423.853 284.892 421.36 272.071 408.487C263.037 397.643 256.946 381.169 251.436 367.901L237.566 334.253C233.639 324.737 228.71 311.694 221.421 304.446C214.929 297.997 206.932 298.447 198.604 298.712L198.51 361.787C198.505 374.095 198.058 387.493 199.307 399.746C200.295 406.934 204.013 413.537 210.633 416.864C213.513 418.313 222.968 418.263 222.788 421.984C219.048 423.038 122.71 423.009 116.248 422.185L115.819 421.125C117.746 417.843 128.793 419.292 133.656 411.189C141.952 397.373 139.095 374.195 139.096 358.41L139.102 284.906L139.126 218.831C139.13 212.291 139.141 205.732 139.13 199.166C139.106 185.521 140.054 169.052 123.713 164.396C121.716 163.828 117.628 163.126 116.077 162.014L115.791 159.977ZM246.086 174.649C232.914 163.99 216.482 164.41 200.429 165.06C199.715 165.499 198.635 165.934 198.638 166.967C198.73 208.813 198.105 250.953 198.56 292.797C216.762 293.672 232.986 293.867 247.049 280.998C247.572 280.526 248.08 280.035 248.57 279.527C264.26 260.405 265.664 237.555 263.766 213.591C262.631 199.27 257.573 183.947 246.086 174.649Z" fill="#222222"/>
<path d="M359.979 159.996C380.223 159.602 401.547 159.936 421.868 159.936L551.405 159.906C553.18 179.874 556.955 212.456 558.37 233.957C558.195 234.261 558.02 234.565 557.84 234.87L556.42 235.136C554.925 234.06 553.83 228.809 553.035 226.802C542.84 201.155 524.73 177.103 497.365 168.775C492.78 167.411 488.09 166.43 483.345 165.842C477.47 165.096 451.96 163.662 447.725 165.936C446.7 167.37 446.625 167.659 446.62 169.749C446.565 182.61 446.605 195.637 446.605 208.488L446.69 283.309L455.7 283.41C484.3 283.648 502.87 282.637 513.64 250.661C514.35 248.545 516.13 240.169 517.16 239.155L518 239.677C519.29 242.624 519.04 246.552 518.995 249.745C518.55 278.058 519.445 306.435 518.68 334.728C518.36 335.073 518.035 335.412 517.71 335.757C515.57 335.118 515.255 330.927 514.87 328.963C508.92 298.697 488.565 287.225 458.965 289.165C455.5 289.392 451.21 288.852 447.475 289.418C446.38 290.605 446.75 290.495 446.635 292.598L446.595 366.892C446.585 379.53 446.03 392.243 447.385 404.816C448.995 418.773 459.195 416.6 469.315 417.175C509.44 419.443 534.79 397.648 552.725 362.347C554.975 357.861 557.085 353.305 559.045 348.685C560.03 346.387 560.415 344.364 561.74 342.376H563.03C563.205 342.64 563.385 342.905 563.56 343.175C561.64 365.034 557.205 402.569 554.335 422.435C543.335 422.804 530.565 422.505 519.46 422.51L450.9 422.505L392.881 422.525C388.6 422.525 361.608 423.104 359.968 421.585C361.666 417.974 373.943 418.344 378.397 410.976C381.306 406.165 383.169 401.604 383.41 395.565C383.943 382.223 383.708 368.251 383.708 354.899L383.712 276.909L383.745 216.669C383.75 213.085 383.836 209.567 383.757 205.865C383.442 190.973 386.565 169.68 367.989 164.301C365.742 163.65 361.993 163.244 360.229 161.999L359.979 159.996Z" fill="#222222"/>
</svg>
