<svg width="1156" height="720" viewBox="0 0 1156 720" fill="none" xmlns="http://www.w3.org/2000/svg">
<path d="M766.424 228.483C815.664 227.492 869.919 226.621 902.944 270.729C943.744 325.226 940.834 425.224 884.414 468.517C853.659 491.091 821.199 491.016 785.079 491.041L733.079 491.051L703.919 491.091C700.864 491.091 687.485 491.665 686.129 489.982C686.184 489.388 686.064 488.734 686.579 488.589C693.439 486.631 699.424 485.916 704.169 479.577C707.244 475.471 709.029 468.397 709.279 462.942C709.899 449.39 709.489 435.594 709.504 421.957L709.539 340.125L709.563 283.981C709.568 279.676 709.624 275.468 709.574 271.053C709.419 256.501 711.644 237.899 693.779 232.838C691.699 232.249 688.084 231.689 686.434 230.529L686.224 228.544C712.869 228.226 739.814 229.019 766.424 228.483ZM825.134 243.726C809.274 232.73 792.329 232.567 773.889 233.207C772.654 234.147 771.769 234.418 771.759 236.039C771.699 244.183 771.719 252.876 771.719 260.953L771.734 320.426L771.725 416.74C771.73 433.124 771.449 449.649 771.969 465.998C772.419 480.289 776.855 485.625 791.475 485.55C811.949 485.44 826.629 478.781 839.109 462.512C866.259 424.628 868.464 360.516 861.139 315.85C856.909 290.052 847.504 259.235 825.134 243.726Z" fill="#222222"/>
<path d="M226 228.172C265.779 227.718 305.648 228.497 345.462 228.061C368.506 227.809 392.829 230.461 412.069 244.313C439.831 264.299 443.025 306.95 422.998 333.435C408.312 352.857 385.492 360.24 362.217 363.426C371.541 366.318 375.802 366.678 385.178 371.818C414.141 387.698 424.014 423.509 436.805 451.702C441.283 461.568 444.31 469.875 452.284 477.718C457.976 483.313 461.437 481.614 465.214 484.277L464.707 485.146C457.491 489.946 433.17 492.679 424.304 492.474C406.155 492.049 395.101 489.557 382.28 476.684C373.246 465.839 367.155 449.364 361.645 436.097L347.775 402.449C343.848 392.934 338.919 379.89 331.63 372.642C325.138 366.193 317.14 366.643 308.812 366.908L308.719 429.983C308.714 442.291 308.267 455.688 309.516 467.942C310.504 475.13 314.222 481.734 320.842 485.061C323.722 486.509 333.178 486.46 332.997 490.181C329.256 491.235 232.919 491.205 226.457 490.381L226.028 489.322C227.954 486.04 239.002 487.488 243.865 479.386C252.161 465.569 249.304 442.391 249.305 426.606L249.311 353.103L249.335 287.028C249.339 280.487 249.35 273.929 249.339 267.363C249.315 253.718 250.263 237.248 233.922 232.593C231.925 232.024 227.837 231.323 226.286 230.21L226 228.172ZM356.295 242.845C343.123 232.186 326.691 232.606 310.638 233.256C309.924 233.695 308.844 234.13 308.847 235.162C308.939 277.009 308.314 319.149 308.769 360.992C326.971 361.868 343.195 362.063 357.258 349.195C357.781 348.722 358.289 348.231 358.779 347.723C374.468 328.601 375.873 305.752 373.975 281.787C372.84 267.466 367.782 252.142 356.295 242.845Z" fill="#222222"/>
<path d="M470.188 228.192C490.433 227.798 511.756 228.132 532.077 228.132L661.614 228.103C663.389 248.071 667.164 280.653 668.579 302.153C668.404 302.457 668.229 302.762 668.049 303.066L666.629 303.332C665.134 302.257 664.039 297.005 663.244 294.998C653.049 269.351 634.939 245.3 607.574 236.972C602.989 235.607 598.299 234.626 593.554 234.038C587.679 233.292 562.169 231.858 557.934 234.132C556.909 235.566 556.834 235.856 556.829 237.945C556.774 250.806 556.814 263.834 556.814 276.684L556.899 351.505L565.909 351.606C594.509 351.844 613.079 350.834 623.849 318.857C624.559 316.741 626.339 308.365 627.369 307.351L628.209 307.873C629.499 310.82 629.249 314.748 629.204 317.941C628.759 346.254 629.654 374.631 628.889 402.924C628.569 403.269 628.244 403.609 627.919 403.953C625.779 403.314 625.464 399.123 625.079 397.16C619.129 366.893 598.774 355.422 569.174 357.361C565.709 357.589 561.419 357.049 557.684 357.614C556.589 358.802 556.959 358.692 556.844 360.794L556.804 435.089C556.794 447.727 556.239 460.44 557.594 473.013C559.204 486.969 569.404 484.797 579.524 485.371C619.649 487.639 644.999 465.844 662.934 430.543C665.184 426.057 667.294 421.502 669.254 416.881C670.239 414.583 670.624 412.56 671.949 410.572H673.239C673.414 410.837 673.594 411.101 673.769 411.371C671.849 433.23 667.414 470.765 664.544 490.631C653.544 491.001 640.774 490.701 629.669 490.706L561.109 490.701L503.091 490.721C498.809 490.721 471.817 491.3 470.177 489.782C471.875 486.17 484.153 486.54 488.606 479.172C491.515 474.361 493.378 469.801 493.62 463.761C494.153 450.419 493.918 436.447 493.917 423.095L493.922 345.105L493.954 284.866C493.96 281.281 494.045 277.763 493.967 274.061C493.652 259.17 496.775 237.876 478.199 232.497C475.952 231.846 472.203 231.44 470.438 230.195L470.188 228.192Z" fill="#222222"/>
<path d="M857.932 0C858.415 0.516728 858.898 1.03264 859.381 1.54937C862.796 20.9809 869.824 58.9815 880.49 74.5214C889.601 87.796 940.932 96.3601 958 99.7536C868.474 120.909 878.711 110.551 859.184 195C857.932 194.141 857.315 193.257 857.065 191.789C853.9 173.26 846.336 142.832 836.751 126.742C827.604 111.373 778.018 103.472 759 99.7123C786.967 94.7345 810.08 90.702 834.641 77.0046C848.741 51.9563 851.736 26.5499 857.932 0Z" fill="#E30004"/>
<path d="M1043.23 359C1046.28 362.709 1052.28 409.109 1060.88 423.265C1072.11 441.758 1109.53 446.144 1129 450.481C1111.61 454.235 1094.35 457.416 1077.25 463.867C1054.99 471.938 1052.64 500.349 1048.05 520.274C1046.5 526.992 1046.6 534.441 1043.68 541C1038.01 527.654 1037.25 492.861 1026.26 476.917C1014.37 459.658 978.119 454.976 958 450.669C976.294 444.929 999.295 442.855 1016.79 432.591C1034.4 422.258 1038.08 379.388 1043.23 359Z" fill="#F78F41"/>
<path d="M112.476 360C115.735 364.321 119.445 394.439 122.104 403.307C127.212 420.355 128.145 427.908 137.149 443.89C160.122 458.132 187.821 463.235 214 468.787C194.548 472.611 167.059 477.69 149.479 485.658C120.524 498.799 122.095 550.641 113.062 576C109.371 568.814 109.085 559.39 107.525 551.849C104.113 535.369 98.2838 501.522 84.617 491.056C68.0149 478.329 31.9847 472.895 12 468.835C107.683 445.145 91.954 451.514 112.476 360Z" fill="#3382CD"/>
</svg>
